<?xml version="1.0" encoding="UTF-8" standalone="no"?>
<svg
        width="404.7677"
        zoomAndPan="magnify"
        viewBox="0 0 303.57578 69.695313"
        height="92.927086"
        preserveAspectRatio="xMidYMid"
        version="1.0"
        id="svg1739"
        sodipodi:docname="LOGO-WHITE.svg"
        inkscape:version="1.2.1 (9c6d41e410, 2022-07-14)"
        xmlns:inkscape="http://www.inkscape.org/namespaces/inkscape"
        xmlns:sodipodi="http://sodipodi.sourceforge.net/DTD/sodipodi-0.dtd"
        xmlns="http://www.w3.org/2000/svg"
>
  <sodipodi:namedview
     id="namedview1741"
     pagecolor="#ffffff"
     bordercolor="#000000"
     borderopacity="0.25"
     inkscape:showpageshadow="2"
     inkscape:pageopacity="0.0"
     inkscape:pagecheckerboard="0"
     inkscape:deskcolor="#d1d1d1"
     showgrid="false"
     inkscape:zoom="1.612"
     inkscape:cx="199.44169"
     inkscape:cy="39.702233"
     inkscape:window-width="1920"
     inkscape:window-height="1009"
     inkscape:window-x="-8"
     inkscape:window-y="-8"
     inkscape:window-maximized="1"
     inkscape:current-layer="svg1739" />
  <defs
     id="defs1673">
    <g
       id="g1665" />
    <clipPath
       id="5ddceb0e28">
      <path
         d="M 37.722656,157.49219 H 71 v 69.75 H 37.722656 Z m 0,0"
         clip-rule="nonzero"
         id="path1667" />
    </clipPath>
    <clipPath
       id="d7f226e334">
      <path
         d="m 74,157.49219 h 32.72266 v 69.75 H 74 Z m 0,0"
         clip-rule="nonzero"
         id="path1670" />
    </clipPath>
  </defs>
  <g
     clip-path="url(#5ddceb0e28)"
     id="g1677"
     transform="translate(-37.722656,-157.51953)">
    <path
       fill="#ffffff"
       d="m 37.734375,173.04687 c 0,-1.24218 0.429687,-2.45703 1.285156,-3.6289 0.855469,-1.1836 1.894531,-2 3.132813,-2.46875 L 65.8125,157.80859 c 0.316406,-0.11718 0.585938,-0.20312 0.84375,-0.23047 0.253906,-0.043 0.496094,-0.0586 0.726562,-0.0586 0.855469,0 1.539063,0.27344 2.066407,0.81641 0.527343,0.54297 0.785156,1.28515 0.785156,2.21484 v 51.15625 c 0,1.24219 -0.429687,2.45703 -1.285156,3.62891 -0.855469,1.18359 -1.894531,1.99609 -3.136719,2.46875 l -23.671875,9.125 c -0.5,0.19922 -1.027344,0.28515 -1.570313,0.28515 -0.855468,0 -1.539062,-0.26953 -2.066406,-0.8125 -0.527344,-0.54297 -0.78125,-1.28515 -0.78125,-2.21484 V 173.04687 Z M 62.28125,168.5625 c 0,-1.01563 -0.429688,-1.51563 -1.285156,-1.51563 -0.113282,0 -0.328125,0.043 -0.640625,0.11329 l -13,5 c -0.539063,0.19921 -0.984375,0.57031 -1.339844,1.1289 -0.339844,0.55469 -0.527344,1.12891 -0.527344,1.71485 v 3.08203 c 0,0.42968 0.113281,0.77343 0.34375,1.01562 0.226563,0.25781 0.527344,0.3711 0.867188,0.3711 0.273437,0 0.484375,-0.043 0.644531,-0.11329 l 3.132812,-1.21484 v 35.40234 c 0,0.97266 0.429688,1.45704 1.285157,1.45704 0.113281,0 0.328125,-0.043 0.640625,-0.11329 l 3.191406,-1.21484 c 0.542969,-0.19922 0.984375,-0.57031 1.339844,-1.125 0.34375,-0.55859 0.527344,-1.11719 0.527344,-1.66016 v -35.40234 l 2.910156,-1.10156 c 0.539062,-0.19922 0.996094,-0.55469 1.367187,-1.09766 0.371094,-0.54297 0.554688,-1.08594 0.554688,-1.6289 v -3.09766 z m 0,0"
       fill-opacity="1"
       fill-rule="nonzero"
       id="path1675" />
  </g>
  <g
     clip-path="url(#d7f226e334)"
     id="g1681"
     transform="translate(-37.722656,-157.51953)">
    <path
       fill="#ffffff"
       d="m 74.167969,173.04687 c 0,-1.24218 0.425781,-2.45703 1.28125,-3.6289 0.855469,-1.1836 1.894531,-2 3.136719,-2.46875 l 23.714842,-9.14063 c 0.31641,-0.11718 0.58594,-0.20312 0.84375,-0.23047 0.25391,-0.043 0.4961,-0.0586 0.72656,-0.0586 0.85547,0 1.53907,0.27344 2.06641,0.81641 0.52734,0.54297 0.78516,1.28515 0.78516,2.21484 v 51.15625 c 0,1.24219 -0.42969,2.45703 -1.28516,3.62891 -0.85547,1.18359 -1.89453,1.99609 -3.13672,2.46875 l -23.714842,9.125 c -0.5,0.19922 -1.027344,0.28515 -1.570313,0.28515 -0.851563,0 -1.539063,-0.26953 -2.066406,-0.8125 -0.527344,-0.54297 -0.78125,-1.28515 -0.78125,-2.21484 z m 25.183593,1.32813 c 0,-2.10156 -0.5,-3.57031 -1.480468,-4.41406 -0.984375,-0.85547 -2.140625,-1.28516 -3.449219,-1.28516 -0.5,0 -1.011719,0.043 -1.511719,0.14063 -0.5,0.10156 -0.984375,0.24609 -1.453125,0.44531 l -7.542969,2.91406 c -0.496093,0.19922 -0.925781,0.55469 -1.28125,1.09766 -0.339843,0.54297 -0.527343,1.10156 -0.527343,1.6875 v 40.51562 c 0,0.42969 0.113281,0.77344 0.34375,1.04297 0.226562,0.26953 0.527343,0.39844 0.867187,0.39844 0.07031,0 0.273438,-0.043 0.585938,-0.11328 l 7.539062,-2.91407 c 0.882813,-0.34375 1.796875,-0.85546 2.722656,-1.51171 0.925782,-0.65625 1.78125,-1.45704 2.550782,-2.41407 0.769531,-0.9414 1.398437,-2.02734 1.882812,-3.25781 0.484375,-1.21484 0.726563,-2.54297 0.726563,-3.98437 V 174.375 Z m -7.027343,30.23437 c 0,1.24219 -0.527344,2.05469 -1.566407,2.44141 l -1.683593,0.64063 v -30.28907 l 1.683593,-0.64453 c 0.269532,-0.11328 0.527344,-0.17187 0.753907,-0.17187 0.542969,0 0.8125,0.44531 0.8125,1.34375 z m 0,0"
       fill-opacity="1"
       fill-rule="nonzero"
       id="path1679" />
  </g>
  <g
     fill="#ffffff"
     fill-opacity="1"
     id="g1689"
     transform="translate(-37.722656,-157.51953)">
    <g
       transform="translate(118.82562,210.50836)"
       id="g1687">
      <g
         id="g1685">
        <path
           d="m 18.769531,-5.101562 h -1.699219 c -2.160156,0 -3.597656,-0.261719 -4.253906,-0.914063 -0.71875,-0.589844 -1.042968,-2.160156 -1.042968,-4.644531 V -21.1875 h 7.0625 c 0.652343,0 1.175781,-0.199219 1.570312,-0.722656 0.390625,-0.523438 0.585938,-1.109375 0.585938,-1.894532 0,-1.765624 -0.71875,-2.683593 -2.15625,-2.683593 h -7.0625 v -7.648438 c 0,-0.65625 -0.328126,-0.980469 -0.917969,-0.980469 -0.390625,0 -0.847657,0.324219 -1.4375,0.914063 l -7.261719,8.5 c -0.652344,0.722656 -0.914062,1.375 -0.914062,2.027344 0,0.722656 0.132812,1.308593 0.523437,1.765625 0.328125,0.523437 0.851563,0.722656 1.570313,0.722656 h 2.617187 v 10.722656 c 0,1.570313 0.0625,2.878906 0.324219,4.054688 0.261718,1.179687 0.65625,2.289062 1.308594,3.335937 0.652343,1.046875 1.636718,1.898438 2.941406,2.484375 C 11.835938,0 13.472656,0.261719 15.433594,0.261719 h 3.335937 c 0.652344,0 1.242188,-0.261719 1.636719,-0.785157 0.390625,-0.523437 0.585938,-1.113281 0.585938,-1.894531 0,-0.785156 -0.195313,-1.375 -0.585938,-1.898437 -0.394531,-0.523438 -0.984375,-0.785156 -1.636719,-0.785156 z m 0,0"
           id="path1683" />
      </g>
    </g>
  </g>
  <g
     fill="#ffffff"
     fill-opacity="1"
     id="g1697"
     transform="translate(-37.722656,-157.51953)">
    <g
       transform="translate(142.43252,210.50836)"
       id="g1695">
      <g
         id="g1693">
        <path
           d="m 21.1875,-2.8125 c 0,0.785156 0.261719,1.503906 0.785156,2.027344 C 22.496094,-0.261719 23.214844,0 24,0 c 0.785156,0 1.441406,-0.261719 2.027344,-0.785156 0.523437,-0.523438 0.851562,-1.242188 0.851562,-2.027344 v -13.210938 c 0,-3.464843 -1.175781,-6.148437 -3.402344,-8.042968 -2.222656,-1.832032 -5.359374,-2.8125 -9.414062,-2.8125 -2.878906,0 -5.234375,0.261718 -7,0.785156 -1.242188,0.328125 -1.832031,1.175781 -1.832031,2.484375 0,0.785156 0.199219,1.375 0.722656,1.832031 0.457031,0.457032 1.042969,0.652344 1.765625,0.652344 1.4375,-0.261719 2.679688,-0.390625 3.855469,-0.390625 3.664062,0 6.148437,0.523437 7.523437,1.503906 1.371094,0.980469 2.089844,2.355469 2.089844,4.183594 v 2.160156 c -2.808594,-1.765625 -6.082031,-2.683593 -9.875,-2.683593 -2.875,0 -5.035156,0.785156 -6.472656,2.289062 -1.503906,1.507812 -2.222656,3.402344 -2.222656,5.691406 0,1.570313 0.261718,2.878906 0.785156,3.988282 0.523437,1.179687 1.109375,2.027343 1.828125,2.617187 0.65625,0.589844 1.441406,1.046875 2.355469,1.375 C 8.4375,0 9.15625,0.195312 9.679688,0.261719 c 0.523437,0.128906 1.046874,0.128906 1.4375,0.128906 h 0.785156 c 3.988281,0 7.0625,-1.042969 9.285156,-3.203125 z m 0,-6.210938 v 1.566407 l -0.523438,0.65625 c -0.390624,0.390625 -1.175781,0.847656 -2.351562,1.242187 -1.179688,0.390625 -2.617188,0.589844 -4.1875,0.589844 -3.921875,0 -5.820312,-1.046875 -5.820312,-3.207031 0,-1.046875 0.394531,-1.832031 1.179687,-2.351563 0.785156,-0.523437 2.289063,-0.785156 4.640625,-0.785156 3.074219,0 5.429688,0.785156 7.0625,2.289062 z m 0,0"
           id="path1691" />
      </g>
    </g>
  </g>
  <g
     fill="#ffffff"
     fill-opacity="1"
     id="g1705"
     transform="translate(-37.722656,-157.51953)">
    <g
       transform="translate(173.23271,210.50836)"
       id="g1703">
      <g
         id="g1701">
        <path
           d="m 3.925781,-23.609375 v 20.730469 c 0,0.785156 0.257813,1.503906 0.78125,2.027344 C 5.230469,-0.261719 5.953125,0 6.734375,0 7.519531,0 8.175781,-0.261719 8.761719,-0.851562 9.285156,-1.375 9.613281,-2.09375 9.613281,-2.878906 V -16.675781 L 9.875,-17.132812 c 0.132812,-0.328126 0.457031,-0.722657 0.851562,-1.246094 0.390626,-0.457032 0.914063,-0.914063 1.4375,-1.4375 0.523438,-0.457032 1.242188,-0.847656 2.09375,-1.175782 0.847657,-0.328124 1.765626,-0.523437 2.746094,-0.523437 1.375,0 2.617188,0.457031 3.726563,1.242187 1.046875,0.785157 1.636719,2.09375 1.636719,3.859376 v 13.535156 c 0,0.785156 0.261718,1.503906 0.785156,2.027344 C 23.675781,-0.261719 24.394531,0 25.179688,0 c 0.785156,0 1.4375,-0.261719 2.027343,-0.851562 0.523438,-0.523438 0.847657,-1.242188 0.847657,-2.027344 v -14.253906 c 0,-2.617188 -0.980469,-4.90625 -2.875,-6.867188 -1.964844,-1.898438 -4.054688,-2.878906 -6.34375,-2.878906 -3.925782,0 -7,1.175781 -9.222657,3.402344 -0.390625,-1.964844 -1.375,-3.011719 -2.878906,-3.011719 -0.78125,0 -1.503906,0.328125 -2.027344,0.851562 -0.523437,0.589844 -0.78125,1.242188 -0.78125,2.027344 z m 0,0"
           id="path1699" />
      </g>
    </g>
  </g>
  <g
     fill="#ffffff"
     fill-opacity="1"
     id="g1713"
     transform="translate(-37.722656,-157.51953)">
    <g
       transform="translate(204.883,210.50836)"
       id="g1711">
      <g
         id="g1709">
        <path
           d="m 23.019531,-2.941406 c 0.06641,0.914062 0.328125,1.632812 0.851563,2.15625 C 24.394531,-0.261719 25.046875,0 25.832031,0 c 0.785157,0 1.4375,-0.261719 2.027344,-0.851562 0.523437,-0.523438 0.851563,-1.242188 0.851563,-2.027344 v -32.828125 c 0,-0.785157 -0.328126,-1.4375 -0.851563,-2.027344 -0.589844,-0.523437 -1.242187,-0.851563 -2.027344,-0.851563 -0.785156,0 -1.503906,0.328126 -2.027343,0.851563 -0.523438,0.589844 -0.785157,1.242187 -0.785157,2.027344 v 12.164062 c -1.832031,-2.222656 -4.511719,-3.335937 -7.976562,-3.335937 -3.335938,0 -6.214844,1.175781 -8.570313,3.402344 -2.351562,2.222656 -3.53125,5.492187 -3.53125,9.808593 0,4.96875 1.113282,8.5 3.46875,10.726563 2.351563,2.222656 5.035156,3.332031 8.109375,3.332031 3.660157,0 6.472657,-1.109375 8.5,-3.332031 z m -0.128906,-13.34375 v 6.082031 l -0.589844,1.308594 c -0.390625,0.914062 -1.175781,1.765625 -2.289062,2.617187 -1.175781,0.914063 -2.484375,1.308594 -3.988281,1.308594 -0.65625,0 -1.242188,0 -1.636719,-0.066406 -0.390625,0 -1.046875,-0.195313 -1.832031,-0.523438 -0.847657,-0.261718 -1.503907,-0.71875 -1.960938,-1.242187 -0.523438,-0.523438 -0.980469,-1.4375 -1.371094,-2.617188 -0.394531,-1.175781 -0.589844,-2.550781 -0.589844,-4.25 0,-1.636719 0.261719,-3.007812 0.785157,-4.1875 0.523437,-1.175781 1.242187,-1.960937 2.15625,-2.484375 0.851562,-0.457031 1.636719,-0.785156 2.355469,-0.914062 0.652343,-0.132813 1.375,-0.261719 2.09375,-0.261719 0.914062,0 1.832031,0.195313 2.679687,0.589844 0.785156,0.390625 1.441406,0.78125 1.960937,1.242187 0.460938,0.457032 0.851563,0.980469 1.246094,1.566406 0.390625,0.65625 0.585938,1.046876 0.71875,1.308594 0.128906,0.261719 0.195313,0.394532 0.261719,0.523438 z m 0,0"
           id="path1707" />
      </g>
    </g>
  </g>
  <g
     fill="#ffffff"
     fill-opacity="1"
     id="g1721"
     transform="translate(-37.722656,-157.51953)">
    <g
       transform="translate(237.51417,210.50836)"
       id="g1719">
      <g
         id="g1717">
        <path
           d="m 22.890625,-5.429688 c -2.289063,0.328126 -3.859375,0.460938 -4.773437,0.460938 -3.335938,0 -5.625,-0.394531 -6.867188,-1.308594 -1.308594,-0.917968 -2.160156,-2.421875 -2.617188,-4.644531 h 14.453126 c 1.113281,0 2.09375,-0.390625 2.941406,-1.175781 0.785156,-0.785156 1.242187,-1.703125 1.242187,-2.8125 0,-3.53125 -1.042969,-6.410156 -3.136719,-8.632813 -2.09375,-2.222656 -5.035156,-3.335937 -8.960937,-3.335937 -3.921875,0 -6.996094,1.308594 -9.089844,3.859375 -2.09375,2.550781 -3.140625,5.820312 -3.140625,9.742187 0,4.054688 1.113282,7.324219 3.335938,9.875 2.222656,2.550782 5.496094,3.792969 9.875,3.792969 2.617187,0 5.035156,-0.195313 7.195312,-0.71875 0.589844,-0.0625 1.113282,-0.324219 1.503906,-0.785156 0.390626,-0.457031 0.589844,-1.042969 0.589844,-1.699219 0,-0.652344 -0.261718,-1.308594 -0.785156,-1.832031 -0.523438,-0.523438 -1.113281,-0.785157 -1.765625,-0.785157 z M 21.648438,-15.828125 H 8.632812 c 0.390626,-1.960937 1.046876,-3.398437 2.09375,-4.316406 0.980469,-0.914063 2.417969,-1.371094 4.378907,-1.371094 1.832031,0 3.335937,0.457031 4.382812,1.242187 1.046875,0.851563 1.765625,2.355469 2.160157,4.445313 z m 0,0"
           id="path1715" />
      </g>
    </g>
  </g>
  <g
     fill="#ffffff"
     fill-opacity="1"
     id="g1729"
     transform="translate(-37.722656,-157.51953)">
    <g
       transform="translate(268.05278,210.50836)"
       id="g1727">
      <g
         id="g1725">
        <path
           d="m 22.890625,-5.429688 c -2.289063,0.328126 -3.859375,0.460938 -4.773437,0.460938 -3.335938,0 -5.625,-0.394531 -6.867188,-1.308594 -1.308594,-0.917968 -2.160156,-2.421875 -2.617188,-4.644531 h 14.453126 c 1.113281,0 2.09375,-0.390625 2.941406,-1.175781 0.785156,-0.785156 1.242187,-1.703125 1.242187,-2.8125 0,-3.53125 -1.042969,-6.410156 -3.136719,-8.632813 -2.09375,-2.222656 -5.035156,-3.335937 -8.960937,-3.335937 -3.921875,0 -6.996094,1.308594 -9.089844,3.859375 -2.09375,2.550781 -3.140625,5.820312 -3.140625,9.742187 0,4.054688 1.113282,7.324219 3.335938,9.875 2.222656,2.550782 5.496094,3.792969 9.875,3.792969 2.617187,0 5.035156,-0.195313 7.195312,-0.71875 0.589844,-0.0625 1.113282,-0.324219 1.503906,-0.785156 0.390626,-0.457031 0.589844,-1.042969 0.589844,-1.699219 0,-0.652344 -0.261718,-1.308594 -0.785156,-1.832031 -0.523438,-0.523438 -1.113281,-0.785157 -1.765625,-0.785157 z M 21.648438,-15.828125 H 8.632812 c 0.390626,-1.960937 1.046876,-3.398437 2.09375,-4.316406 0.980469,-0.914063 2.417969,-1.371094 4.378907,-1.371094 1.832031,0 3.335937,0.457031 4.382812,1.242187 1.046875,0.851563 1.765625,2.355469 2.160157,4.445313 z m 0,0"
           id="path1723" />
      </g>
    </g>
  </g>
  <g
     fill="#ffffff"
     fill-opacity="1"
     id="g1737"
     transform="translate(-37.722656,-157.51953)">
    <g
       transform="translate(298.59139,210.50836)"
       id="g1735">
      <g
         id="g1733">
        <path
           d="m 26.027344,-2.878906 v -12.816406 c 0,-1.375 0.460937,-2.683594 1.375,-3.925782 0.914062,-1.242187 2.355468,-1.894531 4.183594,-1.894531 3.597656,0 5.429687,1.832031 5.429687,5.492187 v 13.144532 c 0,0.785156 0.261719,1.503906 0.785156,2.027344 C 38.324219,-0.261719 39.042969,0 39.828125,0 c 0.785156,0 1.4375,-0.261719 2.027344,-0.851562 0.523437,-0.523438 0.851562,-1.242188 0.851562,-2.027344 v -13.535156 c 0,-3.140626 -0.984375,-5.691407 -2.8125,-7.585938 -1.898437,-1.898438 -4.1875,-2.878906 -6.933593,-2.878906 -4.183594,0 -6.933594,1.4375 -8.371094,4.316406 -1.960938,-2.878906 -4.382813,-4.316406 -7.324219,-4.316406 -3.335937,0 -5.886719,1.175781 -7.652344,3.464844 -0.195312,-0.847657 -0.523437,-1.566407 -1.046875,-2.15625 -0.523437,-0.589844 -1.109375,-0.917969 -1.832031,-0.917969 -0.78125,0 -1.503906,0.328125 -2.027344,0.851562 -0.523437,0.589844 -0.78125,1.242188 -0.78125,2.027344 v 20.730469 c 0,0.785156 0.257813,1.503906 0.78125,2.027344 C 5.230469,-0.261719 5.953125,0 6.734375,0 7.519531,0 8.175781,-0.261719 8.761719,-0.851562 9.285156,-1.375 9.613281,-2.09375 9.613281,-2.878906 v -12.75 c 0,-0.132813 0,-0.394532 0,-0.65625 0,-0.261719 0.132813,-0.785156 0.328125,-1.4375 0.195313,-0.65625 0.457032,-1.242188 0.847656,-1.765625 0.394532,-0.523438 0.917969,-0.980469 1.703126,-1.375 0.785156,-0.390625 1.699218,-0.652344 2.746093,-0.652344 1.308594,0 2.484375,0.457031 3.53125,1.242187 1.046875,0.785157 1.570313,2.09375 1.570313,3.859376 v 13.535156 c 0,0.785156 0.261718,1.503906 0.785156,2.027344 C 21.648438,-0.261719 22.367188,0 23.152344,0 c 0.785156,0 1.4375,-0.261719 2.027344,-0.851562 0.523437,-0.523438 0.847656,-1.242188 0.847656,-2.027344 z m 0,0"
           id="path1731" />
      </g>
    </g>
  </g>
</svg>
