<?xml version="1.0" encoding="UTF-8" standalone="no"?>
<!-- Created with Inkscape (http://www.inkscape.org/) -->

<svg
        width="24.341667mm"
        height="24.586956mm"
        viewBox="0 0 24.341667 24.586956"
        version="1.1"
        id="svg288"
        inkscape:version="1.2.1 (9c6d41e410, 2022-07-14)"
        sodipodi:docname="logo-blue-1.svg"
        xmlns:inkscape="http://www.inkscape.org/namespaces/inkscape"
        xmlns:sodipodi="http://sodipodi.sourceforge.net/DTD/sodipodi-0.dtd"
        xmlns="http://www.w3.org/2000/svg"
>
  <sodipodi:namedview
     id="namedview290"
     pagecolor="#ffffff"
     bordercolor="#000000"
     borderopacity="0.25"
     inkscape:showpageshadow="2"
     inkscape:pageopacity="0.0"
     inkscape:pagecheckerboard="0"
     inkscape:deskcolor="#d1d1d1"
     inkscape:document-units="mm"
     showgrid="false"
     inkscape:zoom="2.0888418"
     inkscape:cx="135.48178"
     inkscape:cy="39.256204"
     inkscape:window-width="1920"
     inkscape:window-height="1009"
     inkscape:window-x="-8"
     inkscape:window-y="-8"
     inkscape:window-maximized="1"
     inkscape:current-layer="layer1" />
  <defs
     id="defs285">
    <clipPath
       id="5ddceb0e28">
      <path
         d="M 37.722656,157.49219 H 71 v 69.75 H 37.722656 Z m 0,0"
         clip-rule="nonzero"
         id="path1667" />
    </clipPath>
    <clipPath
       id="d7f226e334">
      <path
         d="m 74,157.49219 h 32.72266 v 69.75 H 74 Z m 0,0"
         clip-rule="nonzero"
         id="path1670" />
    </clipPath>
  </defs>
  <g
     inkscape:label="Layer 1"
     inkscape:groupmode="layer"
     id="layer1"
     transform="translate(-75.24533,-106.29157)">
    <g
       clip-path="url(#5ddceb0e28)"
       id="g1677"
       transform="matrix(0.35277777,0,0,0.35277777,61.937616,50.722181)"
       style="fill:#1746A2">
      <path
         fill="#ffffff"
         d="m 37.734375,173.04687 c 0,-1.24218 0.429687,-2.45703 1.285156,-3.6289 0.855469,-1.1836 1.894531,-2 3.132813,-2.46875 L 65.8125,157.80859 c 0.316406,-0.11718 0.585938,-0.20312 0.84375,-0.23047 0.253906,-0.043 0.496094,-0.0586 0.726562,-0.0586 0.855469,0 1.539063,0.27344 2.066407,0.81641 0.527343,0.54297 0.785156,1.28515 0.785156,2.21484 v 51.15625 c 0,1.24219 -0.429687,2.45703 -1.285156,3.62891 -0.855469,1.18359 -1.894531,1.99609 -3.136719,2.46875 l -23.671875,9.125 c -0.5,0.19922 -1.027344,0.28515 -1.570313,0.28515 -0.855468,0 -1.539062,-0.26953 -2.066406,-0.8125 -0.527344,-0.54297 -0.78125,-1.28515 -0.78125,-2.21484 V 173.04687 Z M 62.28125,168.5625 c 0,-1.01563 -0.429688,-1.51563 -1.285156,-1.51563 -0.113282,0 -0.328125,0.043 -0.640625,0.11329 l -13,5 c -0.539063,0.19921 -0.984375,0.57031 -1.339844,1.1289 -0.339844,0.55469 -0.527344,1.12891 -0.527344,1.71485 v 3.08203 c 0,0.42968 0.113281,0.77343 0.34375,1.01562 0.226563,0.25781 0.527344,0.3711 0.867188,0.3711 0.273437,0 0.484375,-0.043 0.644531,-0.11329 l 3.132812,-1.21484 v 35.40234 c 0,0.97266 0.429688,1.45704 1.285157,1.45704 0.113281,0 0.328125,-0.043 0.640625,-0.11329 l 3.191406,-1.21484 c 0.542969,-0.19922 0.984375,-0.57031 1.339844,-1.125 0.34375,-0.55859 0.527344,-1.11719 0.527344,-1.66016 v -35.40234 l 2.910156,-1.10156 c 0.539062,-0.19922 0.996094,-0.55469 1.367187,-1.09766 0.371094,-0.54297 0.554688,-1.08594 0.554688,-1.6289 v -3.09766 z m 0,0"
         fill-opacity="1"
         fill-rule="nonzero"
         id="path1675"
         style="fill:#1746A2" />
    </g>
    <g
       clip-path="url(#d7f226e334)"
       id="g1681"
       transform="matrix(0.35277777,0,0,0.35277777,61.937616,50.722181)"
       style="fill:#1746A2">
      <path
         fill="#ffffff"
         d="m 74.167969,173.04687 c 0,-1.24218 0.425781,-2.45703 1.28125,-3.6289 0.855469,-1.1836 1.894531,-2 3.136719,-2.46875 l 23.714842,-9.14063 c 0.31641,-0.11718 0.58594,-0.20312 0.84375,-0.23047 0.25391,-0.043 0.4961,-0.0586 0.72656,-0.0586 0.85547,0 1.53907,0.27344 2.06641,0.81641 0.52734,0.54297 0.78516,1.28515 0.78516,2.21484 v 51.15625 c 0,1.24219 -0.42969,2.45703 -1.28516,3.62891 -0.85547,1.18359 -1.89453,1.99609 -3.13672,2.46875 l -23.714842,9.125 c -0.5,0.19922 -1.027344,0.28515 -1.570313,0.28515 -0.851563,0 -1.539063,-0.26953 -2.066406,-0.8125 -0.527344,-0.54297 -0.78125,-1.28515 -0.78125,-2.21484 z m 25.183593,1.32813 c 0,-2.10156 -0.5,-3.57031 -1.480468,-4.41406 -0.984375,-0.85547 -2.140625,-1.28516 -3.449219,-1.28516 -0.5,0 -1.011719,0.043 -1.511719,0.14063 -0.5,0.10156 -0.984375,0.24609 -1.453125,0.44531 l -7.542969,2.91406 c -0.496093,0.19922 -0.925781,0.55469 -1.28125,1.09766 -0.339843,0.54297 -0.527343,1.10156 -0.527343,1.6875 v 40.51562 c 0,0.42969 0.113281,0.77344 0.34375,1.04297 0.226562,0.26953 0.527343,0.39844 0.867187,0.39844 0.07031,0 0.273438,-0.043 0.585938,-0.11328 l 7.539062,-2.91407 c 0.882813,-0.34375 1.796875,-0.85546 2.722656,-1.51171 0.925782,-0.65625 1.78125,-1.45704 2.550782,-2.41407 0.769531,-0.9414 1.398437,-2.02734 1.882812,-3.25781 0.484375,-1.21484 0.726563,-2.54297 0.726563,-3.98437 V 174.375 Z m -7.027343,30.23437 c 0,1.24219 -0.527344,2.05469 -1.566407,2.44141 l -1.683593,0.64063 v -30.28907 l 1.683593,-0.64453 c 0.269532,-0.11328 0.527344,-0.17187 0.753907,-0.17187 0.542969,0 0.8125,0.44531 0.8125,1.34375 z m 0,0"
         fill-opacity="1"
         fill-rule="nonzero"
         id="path1679"
         style="fill:#1746A2" />
    </g>
  </g>
</svg>
